<svg width="154" height="41" viewBox="0 0 154 41" fill="none" xmlns="http://www.w3.org/2000/svg">
<g clip-path="url(#clip0_6903_37189)">
<rect y="0.265625" width="39.7344" height="39.7344" rx="19.8672" fill="#00928A"/>
<rect x="-6.61745" y="-9.1167" width="46.3568" height="29.2489" fill="#00AFA6"/>
<circle cx="19.87" cy="20.1323" r="11.0373" fill="#FFC700"/>
<path d="M30.9073 20.1323C30.9073 17.205 29.7444 14.3976 27.6745 12.3277C25.6046 10.2578 22.7972 9.09497 19.87 9.09497C16.9427 9.09497 14.1353 10.2578 12.0654 12.3277C9.9955 14.3976 8.83264 17.205 8.83264 20.1323L19.87 20.1323H30.9073Z" fill="#FAFFFA"/>
</g>
<path d="M54.8816 2.74849C56.2761 2.74849 57.4358 3.1896 58.3607 4.07183C59.2856 4.95405 59.748 6.05683 59.748 7.38017C59.748 8.71774 59.2856 9.82052 58.3607 10.6885C57.4358 11.5423 56.2761 11.9692 54.8816 11.9692H50.2072V17.0491H48.1368V2.74849H54.8816ZM50.2072 9.98416H54.8175C55.6571 9.98416 56.3401 9.74226 56.8666 9.25846C57.3931 8.77466 57.6563 8.14856 57.6563 7.38017C57.6563 6.62601 57.386 6.00703 56.8452 5.52323C56.3188 5.0252 55.6429 4.77618 54.8175 4.77618H50.2072V9.98416ZM62.4566 17.0277V2.74849H68.1982C70.2472 2.74849 71.9405 3.42439 73.2781 4.77618C74.6156 6.11375 75.2844 7.80705 75.2844 9.85609V9.92012C75.2844 11.9692 74.6156 13.6696 73.2781 15.0214C71.9405 16.3589 70.2472 17.0277 68.1982 17.0277H62.4566ZM68.1768 4.77618H64.527V15H68.1768C69.6424 15 70.8448 14.5305 71.784 13.5913C72.7231 12.6379 73.1927 11.4142 73.1927 9.92012V9.85609C73.1927 8.362 72.7231 7.14538 71.784 6.20624C70.8448 5.25287 69.6424 4.77618 68.1768 4.77618ZM84.9385 2.74849C86.333 2.74849 87.4927 3.1896 88.4176 4.07183C89.3425 4.95405 89.8049 6.05683 89.8049 7.38017C89.8049 8.71774 89.3425 9.82052 88.4176 10.6885C87.4927 11.5423 86.333 11.9692 84.9385 11.9692H80.2641V17.0491H78.1937V2.74849H84.9385ZM80.2641 9.98416H84.8744C85.714 9.98416 86.397 9.74226 86.9235 9.25846C87.45 8.77466 87.7132 8.14856 87.7132 7.38017C87.7132 6.62601 87.4429 6.00703 86.9021 5.52323C86.3757 5.0252 85.6998 4.77618 84.8744 4.77618H80.2641V9.98416Z" fill="white"/>
<path d="M47.4011 30.082V21.527H50.5953V30.0373C50.5953 31.1393 50.9005 32.0476 51.5111 32.7624C52.1365 33.4623 52.9779 33.8122 54.0351 33.8122C55.1073 33.8122 55.9487 33.4623 56.5592 32.7624C57.1846 32.0476 57.4974 31.1393 57.4974 30.0373V21.527H60.6692V30.082C60.6692 32.1519 60.0661 33.8048 58.8599 35.0408C57.6686 36.2768 56.0604 36.8947 54.0351 36.8947C52.0248 36.8947 50.4166 36.2768 49.2104 35.0408C48.0042 33.8048 47.4011 32.1519 47.4011 30.082ZM69.1902 25.0562C70.5602 25.0562 71.6398 25.4955 72.4291 26.3741C73.2183 27.2526 73.6129 28.4812 73.6129 30.0596V36.4927H70.5974V30.5064C70.5974 29.732 70.3815 29.1215 69.9497 28.6748C69.5178 28.228 68.9743 28.0047 68.3191 28.0047C67.6192 28.0047 67.0235 28.2578 66.5321 28.7641C66.0407 29.2555 65.795 29.9107 65.795 30.7298V36.4927H62.7795V25.3689H65.7056V26.7091H65.8173C66.6066 25.6072 67.7309 25.0562 69.1902 25.0562ZM75.7367 20.4101H78.7521V23.9393H75.7367V20.4101ZM75.7367 25.3689H78.7521V36.4927H75.7367V25.3689ZM86.2455 32.8741L89.2833 25.3689H92.3658L87.608 36.4927H84.5925L79.8348 25.3689H83.0736L86.2455 32.8741ZM98.1291 25.0338C99.9756 25.0338 101.435 25.6891 102.507 26.9995C103.579 28.3099 104.011 29.9554 103.803 31.9359H95.404C95.4933 32.5316 95.7762 33.0379 96.2528 33.4549C96.7442 33.8569 97.3622 34.0728 98.1067 34.1026C98.6279 34.1324 99.1119 34.0431 99.5586 33.8346C100.02 33.6112 100.348 33.3208 100.541 32.9634H103.691C103.334 34.1845 102.649 35.1376 101.636 35.8226C100.623 36.4927 99.4469 36.8277 98.1067 36.8277C96.3049 36.8277 94.8902 36.2619 93.8627 35.1301C92.8352 33.9835 92.3215 32.5837 92.3215 30.9308C92.3215 29.263 92.865 27.8632 93.9521 26.7314C95.054 25.5997 96.4463 25.0338 98.1291 25.0338ZM99.782 28.228C99.3204 27.9004 98.7619 27.7366 98.1067 27.7366C97.4515 27.7366 96.8782 27.9079 96.3868 28.2504C95.9103 28.578 95.5901 29.0247 95.4263 29.5906H100.742C100.579 29.0098 100.259 28.5556 99.782 28.228ZM111.054 25.3689H113.399V28.3844H110.898C110.168 28.3844 109.572 28.6226 109.111 29.0992C108.649 29.5757 108.418 30.1937 108.418 30.9531V36.4927H105.403V25.3689H108.262V27.1112H108.374C108.806 25.9497 109.699 25.3689 111.054 25.3689ZM117.906 25.3689H124.026V28.2727H117.995C117.683 28.2727 117.526 28.4291 117.526 28.7418C117.526 29.0098 117.653 29.1662 117.906 29.2108L122.083 30.0596C122.932 30.2383 123.602 30.6032 124.093 31.1542C124.585 31.7051 124.831 32.3678 124.831 33.1421C124.831 34.1101 124.481 34.9142 123.781 35.5545C123.096 36.18 122.239 36.4927 121.212 36.4927H114.779V33.5665H121.167C121.495 33.5665 121.659 33.4027 121.659 33.0751C121.659 32.822 121.532 32.6582 121.279 32.5837L117.035 31.6679C116.231 31.5041 115.576 31.1467 115.069 30.5957C114.563 30.0448 114.31 29.397 114.31 28.6524C114.31 27.6994 114.652 26.9176 115.337 26.307C116.022 25.6816 116.879 25.3689 117.906 25.3689ZM126.409 20.4101H129.425V23.9393H126.409V20.4101ZM126.409 25.3689H129.425V36.4927H126.409V25.3689ZM140.085 25.3689V28.2727H135.505V32.7177C135.505 32.9858 135.587 33.1943 135.751 33.3432C135.915 33.4921 136.131 33.5665 136.399 33.5665H140.085V36.4927H135.841C134.813 36.4927 133.994 36.2023 133.383 35.6215C132.788 35.0259 132.49 34.2292 132.49 33.2315V28.2727H130.926V25.3689H132.49V21.527H135.505V25.3689H140.085ZM147.46 33.8122L150.185 25.3689H153.245L148.823 38.302C148.525 39.1508 148.071 39.806 147.46 40.2676C146.85 40.7292 146.112 40.9601 145.249 40.9601H142.077V38.0116H145.159C145.457 38.0116 145.71 37.9446 145.919 37.8106L140.804 25.3689H144.11L147.46 33.8122Z" fill="#FFC700"/>
<defs>
<clipPath id="clip0_6903_37189">
<rect y="0.265625" width="39.7344" height="39.7344" rx="19.8672" fill="white"/>
</clipPath>
</defs>
</svg>
